<?xml version="1.0" encoding="UTF-8"?>
<svg id="_Шар_1" data-name="Шар 1" xmlns="http://www.w3.org/2000/svg" viewBox="0 0 415 480">
  <defs>
    <style>
      .cls-1 {
        fill: #028c6a;
      }
    </style>
  </defs>
  <path class="cls-1" d="M366.6,330.4c2.25-11.45,3.4-23.3,3.4-35.4v-5h-40v5c0,8.55-.75,16.9-2.2,25H42.2c-1.45-8.1-2.2-16.45-2.2-25v-5h-10v5c0,85.45,69.55,155,155,155s152.25-66.85,154.9-150h20.05c-2.7,94.2-80.15,170-174.95,170S10,391.5,10,295v-5H0v5c0,102,83,185,185,185,43.4,0,83.4-15.05,115-40.2v.2h60c30.35,0,55-24.65,55-55,0-28.15-21.15-51.35-48.4-54.6Zm-181.6,109.6c-67.9,0-125.05-46.9-140.7-110H325.7c-15.65,63.1-72.8,110-140.7,110Zm175-10h-48.7c25.5-23.85,44.3-54.85,53.1-89.75,22.75,2.2,40.6,21.45,40.6,44.75,0,24.8-20.2,45-45,45Z"/>
  <path class="cls-1" d="M233.1,59.6C220.1,36.55,195.5,0,185,0s-35.1,36.55-48.1,59.6c-13.8,24.35-36.9,71.8-36.9,115.4,0,72.75,47.15,102.05,80,104.75v15.25c0,2.75,2.25,5,5,5s5-2.25,5-5v-15.25c32.85-2.7,80-32,80-104.75,0-43.6-23.1-91.05-36.9-115.4Zm-43.1,210.15v-42.65l53.55-53.55c1.95-1.95,1.95-5.15,0-7.1-1.95-1.95-5.15-1.95-7.1,0l-46.45,46.45V122.1l28.55-28.55c1.95-1.95,1.95-5.15,0-7.1-1.95-1.95-5.15-1.95-7.1,0l-21.45,21.45V45c0-2.75-2.25-5-5-5s-5,2.25-5,5v112.9l-36.45-36.45c-1.95-1.95-5.15-1.95-7.1,0-1.95,1.95-1.95,5.15,0,7.1l43.55,43.55v97.65c-29.85-2.6-70-28.8-70-94.75,0-69.8,61.8-156.4,75-164.65,13.2,8.25,75,94.85,75,164.65,0,65.95-40.15,92.15-70,94.75Z"/>
</svg>